<?xml version="1.0" standalone="no"?><!DOCTYPE svg PUBLIC "-//W3C//DTD SVG 1.1//EN" "http://www.w3.org/Graphics/SVG/1.1/DTD/svg11.dtd"><svg t="1525096370102" class="icon" style="" viewBox="0 0 1024 1024" version="1.1" xmlns="http://www.w3.org/2000/svg" p-id="1821" xmlns:xlink="http://www.w3.org/1999/xlink" width="20" height="20"><defs><style type="text/css"></style></defs><path d="M569.35359148 454.64640852l0-344.12058871c0-32.77306935-24.58004206-57.35311139-57.35359148-57.35359149s-57.35311139 24.58004206-57.35359148 57.35359149l0 344.12058871-348.21710237-4.09651365c-28.67655571 4.09651363-57.35359148 32.77354942-61.45010512 61.45010513 4.09651363 28.67655571 32.77354942 57.35359148 61.45010512 61.45010512l348.21710237-4.09651364 0 344.12058871c0 32.77306935 24.58004206 57.35311139 57.35359148 57.35359149s57.35311139-24.58004206 57.35359148-57.35359149l0-344.12058871 344.12058871 0c32.77306935 0 57.35311139-24.58004206 57.35359149-57.35359148s-24.58004206-57.35311139-57.35359149-57.35359148l-344.12058871 0z" p-id="1822" fill="#ffffff"></path></svg>